<?xml version="1.0" standalone="no"?>
<!DOCTYPE svg PUBLIC "-//W3C//DTD SVG 20010904//EN"
 "http://www.w3.org/TR/2001/REC-SVG-20010904/DTD/svg10.dtd">
<svg version="1.0" xmlns="http://www.w3.org/2000/svg"
 width="512.000000pt" height="512.000000pt" viewBox="0 0 512.000000 512.000000"
 preserveAspectRatio="xMidYMid meet">

<g transform="translate(0.000000,512.000000) scale(0.100000,-0.100000)"
fill="#000000" stroke="none">
<path d="M0 2560 l0 -2560 1288 1 c735 1 1244 5 1187 10 -131 10 -240 39 -345
91 -68 33 -102 58 -170 127 -139 140 -181 248 -180 469 0 225 19 321 190 924
216 762 244 900 220 1067 -27 189 -121 248 -380 239 -108 -5 -141 -10 -244
-42 -65 -20 -120 -35 -122 -33 -3 2 10 64 28 138 l33 133 110 44 c281 110 511
179 674 203 122 17 354 7 460 -20 263 -69 440 -237 496 -472 25 -109 16 -369
-21 -544 -7 -38 -84 -317 -169 -620 -191 -675 -230 -868 -205 -1019 25 -156
94 -215 277 -236 110 -12 214 -1 350 39 54 16 106 32 116 36 23 9 22 7 -13
-144 l-31 -128 -112 -43 c-457 -174 -530 -196 -717 -209 -58 -5 457 -9 1148
-10 l1252 -1 0 2560 0 2560 -1027 -1 c-566 -1 -996 -5 -958 -9 247 -27 463
-204 531 -435 27 -92 23 -240 -8 -331 -84 -241 -336 -414 -603 -414 -135 0
-303 57 -403 137 -152 121 -232 277 -232 453 0 149 47 269 147 379 107 119
251 193 408 211 39 4 -615 8 -1452 9 l-1523 1 0 -2560z"/>
</g>
</svg>
